<svg id="Layer_1" data-name="Layer 1" xmlns="http://www.w3.org/2000/svg" viewBox="0 0 609.08 85.97"><defs><style>.cls-1{fill:#fff;}</style></defs><title>DA_Logo_2017_White</title><path class="cls-1" d="M70.27,0H32.61a4.67,4.67,0,0,0-3.5,1.58L.64,33.8a2.33,2.33,0,0,0,1.75,3.88H40a4.67,4.67,0,0,0,3.5-1.58L72,3.88A2.33,2.33,0,0,0,70.27,0Zm-31,28.26H16.77L33.42,9.42H55.89Z"/><path class="cls-1" d="M.64,52.45,28.86,84.4A4.67,4.67,0,0,0,32.36,86H70a2.33,2.33,0,0,0,1.75-3.88L43.54,50.15A4.67,4.67,0,0,0,40,48.57H2.39A2.33,2.33,0,0,0,.64,52.45Z"/><path class="cls-1" d="M80.42,10.4l-4.35,4.93a2.33,2.33,0,0,0-.13,2.93L89.72,36.84H60a2.33,2.33,0,0,0-1.51.55l-4.73,4a2.33,2.33,0,0,0,0,3.54l4.76,4.19a2.33,2.33,0,0,0,1.54.58H89.6l-13.91,18a2.33,2.33,0,0,0,.1,3l4.35,4.89a2.33,2.33,0,0,0,3.62-.15l23.19-31a2.33,2.33,0,0,0,0-2.78L84,10.55A2.33,2.33,0,0,0,80.42,10.4Z"/><path class="cls-1" d="M175.39,14a29.56,29.56,0,0,1,11.94,2.28,26.75,26.75,0,0,1,8.81,6.07A26.32,26.32,0,0,1,201.63,31a27.5,27.5,0,0,1,1.89,10,28,28,0,0,1-1.85,10,25.78,25.78,0,0,1-5.45,8.66,26.61,26.61,0,0,1-8.85,6.07,29.83,29.83,0,0,1-12,2.28H155.53V14Zm-7.34,10.82V57.3h6.72a16.17,16.17,0,0,0,6.76-1.35,15,15,0,0,0,5-3.63,16.14,16.14,0,0,0,3.13-5.18,17.44,17.44,0,0,0,0-12.09,16.06,16.06,0,0,0-3.13-5.22,15,15,0,0,0-5-3.63,16.19,16.19,0,0,0-6.76-1.35Z"/><path class="cls-1" d="M207.78,18.51a7.25,7.25,0,0,1,2.16-5.33A7.34,7.34,0,0,1,215.35,11a7.77,7.77,0,0,1,5.45,2.16,7,7,0,0,1,1.62,2.4,7.55,7.55,0,0,1,.58,2.94,7.27,7.27,0,0,1-.58,2.9,7.55,7.55,0,0,1-1.62,2.4,7.47,7.47,0,0,1-2.43,1.62,7.77,7.77,0,0,1-3,.58,7.47,7.47,0,0,1-3-.58,7.66,7.66,0,0,1-4-4A7.29,7.29,0,0,1,207.78,18.51Zm1.7,12.37H221.3V68.12H209.48Z"/><path class="cls-1" d="M268.9,67.89a21.24,21.24,0,0,1-1.47,8.46A14,14,0,0,1,263,82a18.15,18.15,0,0,1-6.26,3A33.49,33.49,0,0,1,248,86a28.38,28.38,0,0,1-8.77-1.16,16.86,16.86,0,0,1-5.83-3.17,15.41,15.41,0,0,1-3.86-4.83A14.35,14.35,0,0,1,227.95,71h11.82A6.78,6.78,0,0,0,242,75.31,8.3,8.3,0,0,0,248,77.24a10.23,10.23,0,0,0,6.65-2q2.47-2,2.47-6.42V62.56a11.5,11.5,0,0,1-4.64,4.17,14.26,14.26,0,0,1-6.72,1.62A19.1,19.1,0,0,1,238.34,67a16.63,16.63,0,0,1-5.76-3.9,18.09,18.09,0,0,1-3.75-6,20.62,20.62,0,0,1-1.35-7.61,23,23,0,0,1,1.28-7.77,17.42,17.42,0,0,1,16.81-11.79,14.51,14.51,0,0,1,6.76,1.66,10.82,10.82,0,0,1,4.75,4.6V30.87H268.9ZM248.12,40a8.36,8.36,0,0,0-3.63.77,8.6,8.6,0,0,0-2.78,2.09,9.33,9.33,0,0,0-1.78,3,10.53,10.53,0,0,0-.62,3.63,10.85,10.85,0,0,0,.62,3.67,8.68,8.68,0,0,0,4.56,5.06,8.33,8.33,0,0,0,3.63.77,8.59,8.59,0,0,0,3.67-.77,8.73,8.73,0,0,0,2.82-2,9.34,9.34,0,0,0,1.82-3,10.33,10.33,0,0,0,.66-3.67,10,10,0,0,0-2.47-6.65,8.5,8.5,0,0,0-2.82-2.09A8.61,8.61,0,0,0,248.12,40Z"/><path class="cls-1" d="M273.93,18.51a7.25,7.25,0,0,1,2.16-5.33A7.34,7.34,0,0,1,281.5,11a7.77,7.77,0,0,1,5.45,2.16,7,7,0,0,1,1.62,2.4,7.55,7.55,0,0,1,.58,2.94,7.27,7.27,0,0,1-.58,2.9,7.55,7.55,0,0,1-1.62,2.4,7.47,7.47,0,0,1-2.43,1.62,7.77,7.77,0,0,1-3,.58,7.47,7.47,0,0,1-3-.58,7.66,7.66,0,0,1-4-4A7.29,7.29,0,0,1,273.93,18.51Zm1.7,12.37h11.82V68.12H275.63Z"/><path class="cls-1" d="M319.21,68.12q-1.32.23-3.28.42t-4.6.19a33.56,33.56,0,0,1-4.41-.31,10.32,10.32,0,0,1-4.29-1.58,9.32,9.32,0,0,1-3.25-3.94,17.21,17.21,0,0,1-1.27-7.3V39.68h-5.87V30.87h5.87V19.82h11.75V30.87h8.5v8.81h-8.5V52.95a11.46,11.46,0,0,0,.39,3.32,4.31,4.31,0,0,0,1.08,1.89A3.62,3.62,0,0,0,313,59a8.28,8.28,0,0,0,2,.23h2.24a9.16,9.16,0,0,0,2-.19Z"/><path class="cls-1" d="M365.5,30.87V68.12H353.68V62.87a9.7,9.7,0,0,1-1.85,2.43,12,12,0,0,1-2.67,1.93,16.21,16.21,0,0,1-3.29,1.31,13,13,0,0,1-3.55.5,17.83,17.83,0,0,1-7.38-1.51,17.46,17.46,0,0,1-5.76-4.1,18.15,18.15,0,0,1-3.71-6.18,23.62,23.62,0,0,1,0-15.53,18.16,18.16,0,0,1,3.71-6.18,17.49,17.49,0,0,1,5.76-4.1,17.84,17.84,0,0,1,7.38-1.51,13,13,0,0,1,3.55.5,15,15,0,0,1,3.29,1.35,12.34,12.34,0,0,1,2.67,2,11.14,11.14,0,0,1,1.85,2.4V30.87ZM344.79,59a8.34,8.34,0,0,0,3.63-.77,8.84,8.84,0,0,0,2.78-2,9.32,9.32,0,0,0,1.82-3,10.31,10.31,0,0,0,.66-3.67,10,10,0,0,0-2.47-6.65,8.61,8.61,0,0,0-2.78-2.09,8.92,8.92,0,0,0-7.26,0,8.6,8.6,0,0,0-2.78,2.09,10,10,0,0,0-2.47,6.65,10.29,10.29,0,0,0,.66,3.67,9.32,9.32,0,0,0,1.82,3,8.83,8.83,0,0,0,2.78,2A8.33,8.33,0,0,0,344.79,59Z"/><path class="cls-1" d="M370.92,14h11.82v54.1H370.92Z"/><path class="cls-1" d="M443.87,68.12l-2.09-6.57H422.54l-2.09,6.57H407.08L426.4,14h11.51l19.55,54.1ZM432.2,29.48l-6.65,22.26h13.14Z"/><path class="cls-1" d="M481.58,46.17q2.47.7,4.64,1.51a15.55,15.55,0,0,1,3.79,2,9,9,0,0,1,2.59,3,9.31,9.31,0,0,1,1,4.48,11.06,11.06,0,0,1-1.31,5.6,10.42,10.42,0,0,1-3.63,3.71,16.32,16.32,0,0,1-5.37,2,33,33,0,0,1-6.53.62q-8,0-12.56-3.48t-4.6-10h11.59a5,5,0,0,0,1.66,4.21,6.85,6.85,0,0,0,4.29,1.28,6.77,6.77,0,0,0,3.52-.81A2.87,2.87,0,0,0,482,57.69a2.54,2.54,0,0,0-.58-1.74,5.62,5.62,0,0,0-1.78-1.24,22.1,22.1,0,0,0-3.09-1.16Q474.62,53,472,52.12q-2.32-.7-4.41-1.51a16,16,0,0,1-3.67-2,8.39,8.39,0,0,1-2.51-2.94,9.64,9.64,0,0,1-.93-4.48q0-5.8,4.44-8.58t12-2.78a23.49,23.49,0,0,1,7.07,1,14.13,14.13,0,0,1,5,2.67,11.07,11.07,0,0,1,3,4,12.32,12.32,0,0,1,1,4.95H481.35a5,5,0,0,0-1.2-3.59,4.81,4.81,0,0,0-3.67-1.27,5.76,5.76,0,0,0-3.09.81,2.74,2.74,0,0,0-1.31,2.51,2.32,2.32,0,0,0,.62,1.66,5.67,5.67,0,0,0,1.82,1.2,25,25,0,0,0,3,1.08Q479.26,45.4,481.58,46.17Z"/><path class="cls-1" d="M521,46.17q2.47.7,4.64,1.51a15.55,15.55,0,0,1,3.79,2,9,9,0,0,1,2.59,3,9.31,9.31,0,0,1,1,4.48,11.06,11.06,0,0,1-1.31,5.6A10.42,10.42,0,0,1,528,66.46a16.32,16.32,0,0,1-5.37,2,33,33,0,0,1-6.53.62q-8,0-12.56-3.48t-4.6-10h11.59a5,5,0,0,0,1.66,4.21,6.85,6.85,0,0,0,4.29,1.28,6.77,6.77,0,0,0,3.52-.81,2.87,2.87,0,0,0,1.35-2.67,2.54,2.54,0,0,0-.58-1.74A5.62,5.62,0,0,0,519,54.71a22.1,22.1,0,0,0-3.09-1.16Q514,53,511.41,52.12q-2.32-.7-4.41-1.51a16,16,0,0,1-3.67-2,8.39,8.39,0,0,1-2.51-2.94,9.64,9.64,0,0,1-.93-4.48q0-5.8,4.44-8.58t12-2.78a23.49,23.49,0,0,1,7.07,1,14.13,14.13,0,0,1,5,2.67,11.07,11.07,0,0,1,3,4,12.32,12.32,0,0,1,1,4.95H520.76a5,5,0,0,0-1.2-3.59,4.81,4.81,0,0,0-3.67-1.27,5.76,5.76,0,0,0-3.09.81,2.74,2.74,0,0,0-1.31,2.51,2.32,2.32,0,0,0,.62,1.66,5.67,5.67,0,0,0,1.82,1.2,25,25,0,0,0,3,1.08Q518.67,45.4,521,46.17Z"/><path class="cls-1" d="M548.66,52.36a14.06,14.06,0,0,0,.5,3.21,6.52,6.52,0,0,0,3.9,4.41,9.9,9.9,0,0,0,3.86.66,7.5,7.5,0,0,0,4.68-1.24,6.48,6.48,0,0,0,2.2-3H575.4a12.94,12.94,0,0,1-1.82,4.95,14.49,14.49,0,0,1-3.79,4.06,18.71,18.71,0,0,1-5.56,2.74,26.59,26.59,0,0,1-15.84-.42,17.14,17.14,0,0,1-6.3-4.06,17.36,17.36,0,0,1-3.86-6.22,22.9,22.9,0,0,1-1.31-7.92,22.51,22.51,0,0,1,1.27-7.65A17.67,17.67,0,0,1,542,35.62a17.92,17.92,0,0,1,6.18-4.21,21.88,21.88,0,0,1,8.54-1.55,21.37,21.37,0,0,1,7.92,1.39,19.18,19.18,0,0,1,6,3.71,16.12,16.12,0,0,1,5.22,11.9q0,1.16,0,2.47a20.65,20.65,0,0,1-.35,3Zm8-14.61a8.25,8.25,0,0,0-5.72,2,7.38,7.38,0,0,0-2.24,5.8h15.61a7.65,7.65,0,0,0-2.12-5.72A7.55,7.55,0,0,0,556.62,37.75Z"/><path class="cls-1" d="M606.78,68.12q-1.32.23-3.28.42t-4.6.19a33.56,33.56,0,0,1-4.41-.31,10.32,10.32,0,0,1-4.29-1.58A9.32,9.32,0,0,1,587,62.9a17.21,17.21,0,0,1-1.27-7.3V39.68H579.8V30.87h5.87V19.82h11.75V30.87h8.5v8.81h-8.5V52.95a11.46,11.46,0,0,0,.39,3.32,4.31,4.31,0,0,0,1.08,1.89,3.62,3.62,0,0,0,1.62.89,8.28,8.28,0,0,0,2,.23h2.24a9.16,9.16,0,0,0,2-.19Z"/></svg>