<?xml version="1.0" encoding="UTF-8" standalone="no"?>
<svg
   xmlns:dc="http://purl.org/dc/elements/1.1/"
   xmlns:cc="http://creativecommons.org/ns#"
   xmlns:rdf="http://www.w3.org/1999/02/22-rdf-syntax-ns#"
   xmlns:svg="http://www.w3.org/2000/svg"
   xmlns="http://www.w3.org/2000/svg"
   xmlns:sodipodi="http://sodipodi.sourceforge.net/DTD/sodipodi-0.dtd"
   xmlns:inkscape="http://www.inkscape.org/namespaces/inkscape"
   inkscape:version="1.0.1 (c497b03c, 2020-09-10)"
   sodipodi:docname="icons.svg"
   width="210mm"
   height="297mm"
   viewBox="0 0 210 297"
   version="1.1"
   id="svg3764">
  <sodipodi:namedview
     inkscape:current-layer="svg3764"
     inkscape:window-maximized="0"
     inkscape:window-y="23"
     inkscape:window-x="0"
     inkscape:cy="886.94702"
     inkscape:cx="400.38668"
     inkscape:zoom="2.5450397"
     showgrid="false"
     id="namedview3804"
     inkscape:window-height="1346"
     inkscape:window-width="2560"
     inkscape:pageshadow="2"
     inkscape:pageopacity="0"
     guidetolerance="10"
     gridtolerance="10"
     objecttolerance="10"
     borderopacity="1"
     bordercolor="#666666"
     pagecolor="#ffffff"
     inkscape:document-rotation="0" />
  <defs
     id="defs3758"><inkscape:path-effect
   effect="powerclip"
   id="path-effect1427"
   is_visible="true"
   lpeversion="1"
   inverse="true"
   flatten="false"
   hide_clip="false"
   message="Use fill-rule evenodd on &lt;b&gt;fill and stroke&lt;/b&gt; dialog if no flatten result after convert clip to paths." />
<marker
   style="overflow:visible;"
   id="Arrow2Lend"
   refX="0.0"
   refY="0.0"
   orient="auto"
   inkscape:stockid="Arrow2Lend"
   inkscape:isstock="true">
  <path
     transform="scale(1.1) rotate(180) translate(1,0)"
     d="M 8.7185878,4.0337352 L -2.2072895,0.016013256 L 8.7185884,-4.0017078 C 6.9730900,-1.6296469 6.9831476,1.6157441 8.7185878,4.0337352 z "
     style="fill-rule:evenodd;stroke-width:0.625;stroke-linejoin:round;stroke:#000000;stroke-opacity:1;fill:#000000;fill-opacity:1"
     id="path888" />
</marker>

	
	
<clipPath
   clipPathUnits="userSpaceOnUse"
   id="clipPath1423">
  <path
     id="path1425"
     style="display:block;fill:#000000;stroke-width:1.74068;stroke-miterlimit:4;stroke-dasharray:none"
     d="m 41.213162,230.77942 h 1.536136 v 1.53614 h -1.536136 z" />
</clipPath>
</defs>
  <metadata
     id="metadata3761">
    <rdf:RDF>
      <cc:Work
         rdf:about="">
        <dc:format>image/svg+xml</dc:format>
        <dc:type
           rdf:resource="http://purl.org/dc/dcmitype/StillImage" />
        <dc:title></dc:title>
      </cc:Work>
    </rdf:RDF>
  </metadata>
  <g
     id="layer1">
    <path
       d="m 44.031855,124.25477 a 1.1960869,1.1960869 0 0 1 -1.196087,1.19609 1.1960869,1.1960869 0 0 1 -1.196087,-1.19609 1.1960869,1.1960869 0 0 1 1.196087,-1.19609 1.1960869,1.1960869 0 0 1 1.196087,1.19609"
       style="fill:none;stroke:#000000;stroke-width:0.325001;stroke-linecap:square;stroke-miterlimit:5.3;stroke-dasharray:none"
       id="circle3505" />
    <path
       id="path3507"
       d="m 43.76537,125.4517 0.778636,0.99299"
       style="fill:none;stroke:#000000;stroke-width:0.4;stroke-linecap:butt;stroke-linejoin:miter;stroke-miterlimit:4;stroke-dasharray:none;stroke-opacity:1" />
    <g
       aria-label="+"
       id="g3511"
       style="font-style:normal;font-weight:normal;font-size:10.5833px;line-height:1.25;font-family:sans-serif;fill:#000000;fill-opacity:1;stroke:none;stroke-width:0.264583"
       transform="matrix(0.23030397,0,0,0.23030397,52.758335,119.30397)">
      <path
         d="m -39.839386,21.910214 h -2.816357 v 2.816357 h -0.857826 v -2.816357 h -2.816356 v -0.82682 h 2.816356 v -2.816357 h 0.857826 v 2.816357 h 2.816357 z"
         style="stroke-width:0.264583"
         id="path3509" />
    </g>
  </g>
  <g
     id="g1307"
     transform="matrix(0.02041048,0,0,0.02041048,55.231179,227.74497)"
     inkscape:export-filename="/opt/repositories/solution-spider/datadict/da-style/expand.png"
     inkscape:export-xdpi="89.925774"
     inkscape:export-ydpi="89.925774">
    <g
       id="g1250">
	<polygon
   points="113.995,352.054 113.995,322.054 51.212,322.054 165.419,207.847 144.206,186.634 30,300.84 30,238.059 0,238.059 0,352.054 "
   id="polygon1246" />

	<polygon
   points="322.054,51.213 322.054,113.995 352.054,113.995 352.054,0 238.059,0 238.059,30 300.84,30 186.633,144.208 207.846,165.42 "
   id="polygon1248" />

</g>
    <g
       id="g1252">
</g>
    <g
       id="g1254">
</g>
    <g
       id="g1256">
</g>
    <g
       id="g1258">
</g>
    <g
       id="g1260">
</g>
    <g
       id="g1262">
</g>
    <g
       id="g1264">
</g>
    <g
       id="g1266">
</g>
    <g
       id="g1268">
</g>
    <g
       id="g1270">
</g>
    <g
       id="g1272">
</g>
    <g
       id="g1274">
</g>
    <g
       id="g1276">
</g>
    <g
       id="g1278">
</g>
    <g
       id="g1280">
</g>
  </g>
  <polygon
     points="30,238.059 0,238.059 0,352.054 113.995,352.054 113.995,322.054 51.212,322.054 165.419,207.847 144.206,186.634 30,300.84 "
     id="polygon1309"
     transform="matrix(-0.02041048,0,0,-0.02041048,67.179604,238.86101)"
     inkscape:export-filename="/opt/repositories/solution-spider/datadict/da-style/collapse.png"
     inkscape:export-xdpi="89.925774"
     inkscape:export-ydpi="89.925774" />
  <polygon
     points="300.84,30 186.633,144.208 207.846,165.42 322.054,51.213 322.054,113.995 352.054,113.995 352.054,0 238.059,0 238.059,30 "
     id="polygon1311"
     transform="matrix(-0.02041048,0,0,-0.02041048,74.798183,231.24243)"
     inkscape:export-filename="/opt/repositories/solution-spider/datadict/da-style/collapse.png"
     inkscape:export-xdpi="89.925774"
     inkscape:export-ydpi="89.925774" />
  <g
     id="g1315"
     transform="matrix(0.02041048,0,0,0.02041048,63.803323,227.86613)">
</g>
  <g
     id="g1317"
     transform="matrix(0.02041048,0,0,0.02041048,63.803323,227.86613)">
</g>
  <g
     id="g1319"
     transform="matrix(0.02041048,0,0,0.02041048,63.803323,227.86613)">
</g>
  <g
     id="g1321"
     transform="matrix(0.02041048,0,0,0.02041048,63.803323,227.86613)">
</g>
  <g
     id="g1323"
     transform="matrix(0.02041048,0,0,0.02041048,63.803323,227.86613)">
</g>
  <g
     id="g1325"
     transform="matrix(0.02041048,0,0,0.02041048,63.803323,227.86613)">
</g>
  <g
     id="g1327"
     transform="matrix(0.02041048,0,0,0.02041048,63.803323,227.86613)">
</g>
  <g
     id="g1329"
     transform="matrix(0.02041048,0,0,0.02041048,63.803323,227.86613)">
</g>
  <g
     id="g1331"
     transform="matrix(0.02041048,0,0,0.02041048,63.803323,227.86613)">
</g>
  <g
     id="g1333"
     transform="matrix(0.02041048,0,0,0.02041048,63.803323,227.86613)">
</g>
  <g
     id="g1335"
     transform="matrix(0.02041048,0,0,0.02041048,63.803323,227.86613)">
</g>
  <g
     id="g1337"
     transform="matrix(0.02041048,0,0,0.02041048,63.803323,227.86613)">
</g>
  <g
     id="g1339"
     transform="matrix(0.02041048,0,0,0.02041048,63.803323,227.86613)">
</g>
  <g
     id="g1341"
     transform="matrix(0.02041048,0,0,0.02041048,63.803323,227.86613)">
</g>
  <g
     id="g1343"
     transform="matrix(0.02041048,0,0,0.02041048,63.803323,227.86613)">
</g>
  <path
     inkscape:export-filename="/opt/repositories/func-test-framework/src/main/resources/templates/images/zoomPlus.png"
     id="path1367"
     style="fill:none;stroke:#000000;stroke-width:0.683393;stroke-linecap:square;stroke-miterlimit:5.3;stroke-dasharray:none"
     d="m 78.629271,231.67038 a 2.5150626,2.5150626 0 0 1 -2.515064,2.51505 2.5150626,2.5150626 0 0 1 -2.515062,-2.51505 2.5150626,2.5150626 0 0 1 2.515062,-2.51506 2.5150626,2.5150626 0 0 1 2.515064,2.51506"
     inkscape:export-xdpi="89.925774"
     inkscape:export-ydpi="89.925774" />
  <path
     style="fill:none;stroke:#000000;stroke-width:0.468005;stroke-linecap:butt;stroke-linejoin:miter;stroke-miterlimit:4;stroke-dasharray:none;stroke-opacity:1"
     d="m 72.323632,231.67038 h 7.581154"
     id="path1373" />
  <path
     style="fill:none;stroke:#000000;stroke-width:0.468005;stroke-linecap:butt;stroke-linejoin:miter;stroke-miterlimit:4;stroke-dasharray:none;stroke-opacity:1"
     d="m 76.114209,227.8798 v 7.58116"
     id="path1375" />
  <rect
     style="fill:#ffffff;stroke-width:1.74068;stroke-miterlimit:4;stroke-dasharray:none"
     id="rect1377"
     width="1.5361376"
     height="1.5361376"
     x="75.346138"
     y="230.90231" />
  <g
     id="g1463"
     inkscape:export-filename="/opt/repositories/solution-spider/datadict/da-style/hide2.png"
     inkscape:export-xdpi="89.925774"
     inkscape:export-ydpi="89.925774"
     transform="matrix(0.70367859,0,0,0.70367859,24.417385,69.307754)">
    <g
       aria-label="&lt;"
       transform="scale(0.88927192,1.1245154)"
       id="text1447"
       style="font-style:normal;font-weight:normal;font-size:9.41143px;line-height:1.25;font-family:sans-serif;fill:#000000;fill-opacity:1;stroke:none;stroke-width:0.235286">
      <path
         d="m 97.965094,208.76593 -5.30312,-2.35745 v -0.56983 l 5.30312,-2.35745 v 0.82717 l -4.181837,1.81519 4.181837,1.8152 z"
         style="stroke-width:0.235286"
         id="path1453" />
    </g>
    <g
       aria-label="&lt;"
       transform="scale(0.88927194,1.1245154)"
       id="text1451"
       style="font-style:normal;font-weight:normal;font-size:9.41143px;line-height:1.25;font-family:sans-serif;fill:#000000;fill-opacity:1;stroke:none;stroke-width:0.235286">
      <path
         d="m 102.13048,208.76593 -5.303124,-2.35745 v -0.56983 l 5.303124,-2.35745 v 0.82717 l -4.18184,1.81519 4.18184,1.8152 z"
         style="stroke-width:0.235286"
         id="path1456" />
    </g>
  </g>
  <g
     id="g1473"
     inkscape:export-filename="/opt/repositories/solution-spider/datadict/da-style/show.png"
     inkscape:export-xdpi="89.925774"
     inkscape:export-ydpi="89.925774"
     transform="matrix(-0.70367859,0,0,-0.70367859,146.84019,401.33868)">
    <g
       aria-label="&lt;"
       transform="scale(0.88927192,1.1245154)"
       id="g1467"
       style="font-style:normal;font-weight:normal;font-size:9.41143px;line-height:1.25;font-family:sans-serif;fill:#000000;fill-opacity:1;stroke:none;stroke-width:0.235286">
      <path
         d="m 97.965094,208.76593 -5.30312,-2.35745 v -0.56983 l 5.30312,-2.35745 v 0.82717 l -4.181837,1.81519 4.181837,1.8152 z"
         style="stroke-width:0.235286"
         id="path1465" />
    </g>
    <g
       aria-label="&lt;"
       transform="scale(0.88927194,1.1245154)"
       id="g1471"
       style="font-style:normal;font-weight:normal;font-size:9.41143px;line-height:1.25;font-family:sans-serif;fill:#000000;fill-opacity:1;stroke:none;stroke-width:0.235286">
      <path
         d="m 102.13048,208.76593 -5.303124,-2.35745 v -0.56983 l 5.303124,-2.35745 v 0.82717 l -4.18184,1.81519 4.18184,1.8152 z"
         style="stroke-width:0.235286"
         id="path1469" />
    </g>
  </g>
  <path
     inkscape:export-filename="/opt/repositories/solution-spider/datadict/da-style/search.png"
     inkscape:export-ydpi="89.925774"
     inkscape:export-xdpi="89.925774"
     d="m 51.499665,230.30034 a 2.57441,2.57441 0 0 1 -2.57441,2.5744 2.57441,2.57441 0 0 1 -2.57441,-2.5744 2.57441,2.57441 0 0 1 2.57441,-2.57442 2.57441,2.57441 0 0 1 2.57441,2.57442"
     style="fill:none;stroke:#000000;stroke-width:0.699519;stroke-linecap:square;stroke-miterlimit:5.3;stroke-dasharray:none"
     id="path1604" />
  <path
     inkscape:export-filename="/opt/repositories/solution-spider/datadict/da-style/search.png"
     inkscape:export-ydpi="89.925774"
     inkscape:export-xdpi="89.925774"
     sodipodi:nodetypes="cc"
     id="path1606"
     d="m 50.966005,232.95959 1.09545,1.39702"
     style="fill:none;stroke:#000000;stroke-width:0.69506;stroke-linecap:butt;stroke-linejoin:miter;stroke-miterlimit:4;stroke-dasharray:none;stroke-opacity:1" />
</svg>
